<?xml version="1.0" encoding="UTF-8" standalone="no"?>
<!DOCTYPE svg PUBLIC "-//W3C//DTD SVG 1.1//EN" "http://www.w3.org/Graphics/SVG/1.1/DTD/svg11.dtd">
<svg width="100%" height="100%" viewBox="0 0 1182 1182" version="1.1" xmlns="http://www.w3.org/2000/svg" xmlns:xlink="http://www.w3.org/1999/xlink" xml:space="preserve" xmlns:serif="http://www.serif.com/" style="fill-rule:evenodd;clip-rule:evenodd;stroke-linecap:round;stroke-linejoin:round;stroke-miterlimit:1.5;">
    <path d="M530.847,402.354C534.934,400.31 531.961,386.005 531.366,382.885C522.38,335.709 489.872,286.725 517.608,238.816C570.084,148.176 708.661,158.833 708.661,22.324C708.661,17.632 707.364,31.649 707.364,36.342C707.364,47.689 709.705,59.16 712.555,70.087C720.418,100.23 727.737,131.542 740.331,160.163C750.831,184.028 766.032,205.599 774.336,230.51C804.87,322.112 784.295,414.068 692.308,453.491" style="fill:url(#_Linear1);stroke:black;stroke-width:23.15px;"/>
    <path d="M743.705,594.445C790.812,523.784 866.477,487.711 945.141,530.068C977.44,547.46 1002.82,571.25 1040.41,577.312C1074.15,582.755 1103.69,575.134 1133.6,560.18C1136.92,558.518 1156.44,546.162 1159.56,547.72C1160.47,548.176 1153.89,552.276 1144.24,565.631C1131.3,583.555 1126.26,606.851 1117.25,626.893C1101.03,662.931 1078.04,694 1050.79,722.679C989.722,786.963 875.68,782.649 806.265,734.36C788.525,722.019 777.107,703.904 762.136,688.933" style="fill:url(#_Linear2);stroke:black;stroke-width:23.15px;"/>
    <path d="M595.743,757.982C622.948,776.119 664.86,778.296 694.644,794.064C716.001,805.371 733.145,823.988 739.033,847.538C761.459,937.245 643.197,945.142 590.292,1000.69C567.086,1025.06 561.997,1059.24 561.997,1091.29C561.997,1093.64 562.608,1118.02 562.257,1118.02C557.806,1118.02 540.527,1095.57 536.298,1091.81C521.884,1078.99 506.697,1068.02 493.467,1053.91C425.977,981.917 402.314,901.293 451.415,809.639C465.075,784.139 480.12,759.422 503.331,741.369" style="fill:url(#_Linear3);stroke:black;stroke-width:23.15px;"/>
    <path d="M403.651,482.824C389.187,482.824 376.469,490.89 360.82,486.978C311.062,474.538 280.628,433.49 218.05,436.618C192.394,437.901 162.056,453.808 143.809,471.143C129.143,485.076 61.264,595.228 69.568,611.837C71.823,616.346 76.588,604.152 81.249,602.232C101.08,594.067 121.884,604.382 137.319,616.509C161.065,635.167 168.72,666.406 190.534,686.856C259.396,751.414 365.009,702.379 409.622,635.459" style="fill:url(#_Linear4);stroke:black;stroke-width:23.15px;"/>
    <path d="M411.439,430.908C400.339,430.908 388.403,417.046 380.808,410.401C324.146,360.822 356.735,346.019 362.378,281.128C363.814,264.614 367.238,246.057 363.157,229.731C362.194,225.88 359.003,218.569 359.003,218.569C359.003,218.569 361.819,224.519 363.416,227.395C372.911,244.485 385.61,254.837 401.575,265.813C448.587,298.134 494.524,338.969 468.028,405.209" style="fill:url(#_Linear5);stroke:black;stroke-width:23.15px;"/>
    <path d="M777.451,449.078C783.812,445.898 783.559,422.505 793.545,415.592C848.884,377.281 882.587,414.02 909.059,334.602C909.099,334.484 909.549,332.895 910.098,332.785C911.724,332.46 912.929,336.867 913.213,337.717C918.312,353.016 920.222,371.935 920.222,388.076C920.222,404.222 918.368,422.893 909.319,436.878C884.347,475.472 831.356,466.515 796.66,483.863" style="fill:url(#_Linear6);stroke:black;stroke-width:23.15px;"/>
    <path d="M754.088,755.386C767.547,728.468 816.079,805.207 817.946,808.601C818.432,809.485 818.984,810.331 819.503,811.197C819.503,811.197 822.618,816.388 822.618,816.388C823.593,817.932 824.482,819.528 825.474,821.061C842.042,846.666 879.763,833.817 883.361,837.415C889.354,843.407 874.751,852.099 871.68,859.998C853.546,906.627 797.084,866.511 777.451,842.347C762.463,823.9 750.814,804.288 733.841,787.315" style="fill:url(#_Linear7);stroke:black;stroke-width:23.15px;"/>
    <path d="M437.397,773.557C437.07,772.902 436.513,772.793 435.84,773.298C398.56,801.257 391.96,858.52 373.799,896.859C373.108,898.32 371.881,900.234 370.944,901.532C347.311,934.254 274.949,909.646 253.872,881.544C250.246,876.709 266.588,875.632 269.188,875.054C286.617,871.181 302.647,855.38 310.461,839.751C322.321,816.031 309.202,793.583 310.461,769.663C312.144,737.697 406.093,695.916 435.061,688.674" style="fill:url(#_Linear8);stroke:black;stroke-width:23.15px;"/>
    <g transform="matrix(1,0,0,1,-35.0437,15.575)">
        <circle cx="625.595" cy="574.976" r="281.647" style="fill:url(#_Radial9);stroke:black;stroke-width:23.15px;"/>
    </g>
    <g transform="matrix(1,0,0,1,-11.0551,86.8583)">
        <text x="437.397px" y="552.912px" style="font-family:'Arial-BoldMT', 'Arial', sans-serif;font-weight:700;font-size:150px;">Quiz</text>
    </g>
    <defs>
        <linearGradient id="_Linear1" x1="0" y1="0" x2="1" y2="0" gradientUnits="userSpaceOnUse" gradientTransform="matrix(52.4994,-158.346,158.346,52.4994,647.077,288.137)"><stop offset="0" style="stop-color:rgb(120,68,10);stop-opacity:1"/><stop offset="1" style="stop-color:rgb(251,135,6);stop-opacity:1"/></linearGradient>
        <linearGradient id="_Linear2" x1="0" y1="0" x2="1" y2="0" gradientUnits="userSpaceOnUse" gradientTransform="matrix(175.218,9.18037,-9.18037,175.218,872.199,641.356)"><stop offset="0" style="stop-color:rgb(67,43,16);stop-opacity:1"/><stop offset="0.79" style="stop-color:rgb(211,105,25);stop-opacity:1"/><stop offset="1" style="stop-color:rgb(250,121,27);stop-opacity:1"/></linearGradient>
        <linearGradient id="_Linear3" x1="0" y1="0" x2="1" y2="0" gradientUnits="userSpaceOnUse" gradientTransform="matrix(10.3833,-212.858,212.858,10.3833,549.018,1085.06)"><stop offset="0" style="stop-color:rgb(255,111,0);stop-opacity:1"/><stop offset="1" style="stop-color:rgb(111,48,0);stop-opacity:1"/></linearGradient>
        <linearGradient id="_Linear4" x1="0" y1="0" x2="1" y2="0" gradientUnits="userSpaceOnUse" gradientTransform="matrix(-168.729,2.06633e-14,-2.06633e-14,-168.729,273.86,576.773)"><stop offset="0" style="stop-color:rgb(101,66,28);stop-opacity:1"/><stop offset="1" style="stop-color:rgb(255,110,0);stop-opacity:1"/></linearGradient>
        <linearGradient id="_Linear5" x1="0" y1="0" x2="1" y2="0" gradientUnits="userSpaceOnUse" gradientTransform="matrix(-29.3329,-36.3416,36.3416,-29.3329,409.622,345.245)"><stop offset="0" style="stop-color:rgb(109,62,9);stop-opacity:1"/><stop offset="1" style="stop-color:rgb(233,136,29);stop-opacity:1"/></linearGradient>
        <linearGradient id="_Linear6" x1="0" y1="0" x2="1" y2="0" gradientUnits="userSpaceOnUse" gradientTransform="matrix(57.1082,-22.5923,22.5923,57.1082,844.942,430.908)"><stop offset="0" style="stop-color:rgb(158,83,0);stop-opacity:1"/><stop offset="0.57" style="stop-color:rgb(210,120,20);stop-opacity:1"/><stop offset="1" style="stop-color:rgb(233,136,29);stop-opacity:1"/></linearGradient>
        <linearGradient id="_Linear7" x1="0" y1="0" x2="1" y2="0" gradientUnits="userSpaceOnUse" gradientTransform="matrix(61.3168,48.5241,-48.5241,61.3168,787.519,802.908)"><stop offset="0" style="stop-color:rgb(158,83,0);stop-opacity:1"/><stop offset="0.51" style="stop-color:rgb(176,96,7);stop-opacity:1"/><stop offset="1" style="stop-color:rgb(233,136,29);stop-opacity:1"/></linearGradient>
        <linearGradient id="_Linear8" x1="0" y1="0" x2="1" y2="0" gradientUnits="userSpaceOnUse" gradientTransform="matrix(-39.042,64.8957,-64.8957,-39.042,347.946,789.132)"><stop offset="0" style="stop-color:rgb(158,83,0);stop-opacity:1"/><stop offset="0.45" style="stop-color:rgb(180,98,8);stop-opacity:1"/><stop offset="1" style="stop-color:rgb(233,136,29);stop-opacity:1"/></linearGradient>
        <radialGradient id="_Radial9" cx="0" cy="0" r="1" gradientUnits="userSpaceOnUse" gradientTransform="matrix(1.72459e-14,281.647,-281.647,1.72459e-14,625.595,496.358)"><stop offset="0" style="stop-color:rgb(225,147,12);stop-opacity:1"/><stop offset="1" style="stop-color:rgb(138,0,0);stop-opacity:1"/></radialGradient>
    </defs>
</svg>
